<svg id="Capa_1" data-name="Capa 1" xmlns="http://www.w3.org/2000/svg" xmlns:xlink="http://www.w3.org/1999/xlink" viewBox="0 0 601 601"><defs><style>.cls-1,.cls-6{fill:#2b426e;}.cls-2{fill:#0e1535;stroke:#0e1535;}.cls-2,.cls-3,.cls-4,.cls-6{stroke-miterlimit:10;}.cls-3,.cls-4{fill:#fff;stroke:#2b426e;}.cls-3,.cls-6{stroke-width:3.56px;}.cls-4{stroke-width:0.11px;}.cls-5{clip-path:url(#clip-path);}.cls-6{stroke:#fff;}</style><clipPath id="clip-path" transform="translate(0.5 0.5)"><path id="SVGID" class="cls-1" d="M290.23,139.14c-18.87,11.23-30.67,26.29-37.42,36.87,2.34-2.68,39.1-43.3,88.51-33.22,31.49,6.43,49.78,29.7,52.63,33.44,15.84,20.79,18.38,42.73,19.14,50.1,1.24,12.1-1.12,24.46-5.67,48.66-3.3,17.58-6.75,32-9.31,42l29.71.25c3.74-13.72,6.34-25.66,8.16-35.13,5.18-26.95,5.9-43.62,6.12-49.93,0-.55,0-1,0-1.4A227.94,227.94,0,0,0,438.91,187c-4-23.15-7.67-41.11-21.86-53.09-9.85-8.31-20.29-9.79-36.48-12.1-22.74-3.25-40.66.74-52.31,3.45S304.26,130.78,290.23,139.14Z"/></clipPath></defs><circle class="cls-2" cx="300.5" cy="300.5" r="300"/><path class="cls-3" d="M65.2,411.14q3-30.66,4.78-55.21T72.91,299q1.2-32.39,1.73-68.33t.43-57.19q20.75.43,33.52.39,13.27-.06,32.36-.91t37.16-.93A364.28,364.28,0,0,1,216,173.61a89.31,89.31,0,0,1,22.67,4.95,64,64,0,0,1,17.21,9.25A55.53,55.53,0,0,1,267.49,200a53.82,53.82,0,0,1,7.28,15.9,71.76,71.76,0,0,1,2.65,19.58,81.34,81.34,0,0,1-2.73,21.86,65.06,65.06,0,0,1-8.8,19.18,60.24,60.24,0,0,1-15.21,15.56q-9.18,6.56-25.75,13.42l8.72,22.07q3.67,9.21,7.87,18.77L264,397.29q1.52,3.3,5.37,13-27.37-.24-36.82-.2-11.94,0-39.14.51-2.7-9-9.77-33.56-2.86-10.26-4.88-15.83-4-12.33-11.94-34.59l-17.3-49.2a92,92,0,0,0,17.59,1.67,60.36,60.36,0,0,0,22-3.92,29.68,29.68,0,0,0,14.88-11.89,31.09,31.09,0,0,0,5-16.91,23,23,0,0,0-3.87-13.13q-3.84-5.64-12.07-8.39t-25.32-2.69q-5.8,0-12,.31t-14.52.5q-2,35.69-3.41,87.05T136,410.85q-27.75-.23-36-.2Q90.29,410.7,65.2,411.14Z" transform="translate(0.5 0.5)"/><path class="cls-3" d="M391.5,270.05q43.14,1.23,88.2,1.21,27.92,0,55.1-.57-2.07,23.87-4.12,67.56t-2.47,66q-19.08,3.74-31.6,5.44t-30.11,3.08q-17.58,1.37-31.36,1.43a255.53,255.53,0,0,1-44.33-3.65,143.12,143.12,0,0,1-39-12.21,82.31,82.31,0,0,1-28.72-23,107.18,107.18,0,0,1-17.81-34.57,138.93,138.93,0,0,1-6.39-41.41,133.39,133.39,0,0,1,16.5-65.69q16.63-30.36,48-48.16t81.16-18q36.34-.15,80.53,8.91.09,25.41,2.38,56.57-12-4.14-19.36-6.28a176.25,176.25,0,0,0-17.27-3.94q-9.88-1.78-18.77-2.62t-15.85-.81a107.36,107.36,0,0,0-34.5,5.62,71.92,71.92,0,0,0-45.29,44.31,96.52,96.52,0,0,0-5.68,33.45q.07,17.94,6.77,31.92a45.13,45.13,0,0,0,21.16,21.24A70.15,70.15,0,0,0,431,363a130.89,130.89,0,0,0,32.34-4.65L465,320.58q-10.81-.48-12.81-.47l-55.17,0Z" transform="translate(0.5 0.5)"/><path id="SVGID-2" data-name="SVGID" class="cls-1" d="M195,446.31A116.41,116.41,0,0,0,245.24,459c5.87.13,37.06,3,64.82-18.27,8.43-6.46,17.13-13.74,25.89-21.95a352.11,352.11,0,0,0,55.31-66.59L417,361.08c-9.82,13.4-18.81,24.38-26,32.71-9.63,11.22-23.1,26.84-42.91,44.2-8.4,7.36-16.54,13.85-24.23,19.54-8.89,6.59-46.18,29.24-87,16.77C228.68,471.79,211.36,465.1,195,446.31Z" transform="translate(0.5 0.5)"/><path class="cls-4" d="M188.57,444.35a102,102,0,0,0,31.8,17.7c49.85,16.81,96.1-12.38,104.24-17.7a325.29,325.29,0,0,0,25.89-22A335.65,335.65,0,0,0,401.07,362l27.2,1.38a304.08,304.08,0,0,1-22.7,34,299.18,299.18,0,0,1-67.14,63.75c-3,2.36-52.28,40-105,19.46C209.11,471.13,194.94,453.58,188.57,444.35Z" transform="translate(0.5 0.5)"/><path id="SVGID-3" data-name="SVGID" class="cls-1" d="M290.23,139.14c-18.87,11.23-30.67,26.29-37.42,36.87,2.34-2.68,39.1-43.3,88.51-33.22,31.49,6.43,49.78,29.7,52.63,33.44,15.84,20.79,18.38,42.73,19.14,50.1,1.24,12.1-1.12,24.46-5.67,48.66-3.3,17.58-6.75,32-9.31,42l29.71.25c3.74-13.72,6.34-25.66,8.16-35.13,5.18-26.95,5.9-43.62,6.12-49.93,0-.55,0-1,0-1.4A227.94,227.94,0,0,0,438.91,187c-4-23.15-7.67-41.11-21.86-53.09-9.85-8.31-20.29-9.79-36.48-12.1-22.74-3.25-40.66.74-52.31,3.45S304.26,130.78,290.23,139.14Z" transform="translate(0.5 0.5)"/><g class="cls-5"><path class="cls-6" d="M168,413.18s37.77,81.62,143.36,18.67a296.42,296.42,0,0,0,25.89-22,312.17,312.17,0,0,0,57.55-74.65l26.75-.11a275.25,275.25,0,0,1-29.23,49.74,266.58,266.58,0,0,1-67.14,63.75S220.39,524.4,168,413.18Z" transform="translate(0.5 0.5)"/></g><path class="cls-4" d="M257.48,167c.46.44,5.19-3.92,8.7-6.87A124.43,124.43,0,0,1,295,142.36c9.19-4.12,37.07-16.68,68.76-5.89,29.84,10.17,45.22,34.93,49.84,43.09a161.52,161.52,0,0,1,13.23,59.27c.45,17-2.64,32.39-5.66,48.66-2.5,13.38-5.28,24.43-7.46,32.31l31.46.32c1.82-9.86,3.34-18.48,4.55-25.53,4.13-24,5.61-35.4,6.13-49.93,0-.55,0-1,0-1.4a227.88,227.88,0,0,0-3.23-43.81c-1.05-9.36-4.82-32.13-21.87-53.09a92.12,92.12,0,0,0-33.22-25.92c-44.82-20-91.67,7.62-101.2,13.23-6.14,3.62-20.39,10.81-32,24C262.15,160.27,257,166.48,257.48,167Z" transform="translate(0.5 0.5)"/></svg>