<svg id="Capa_1" data-name="Capa 1" xmlns="http://www.w3.org/2000/svg" xmlns:xlink="http://www.w3.org/1999/xlink" viewBox="0 0 811 241"><defs><style>.cls-1,.cls-6{fill:#2b426e;}.cls-2{fill:#0e1535;stroke:#0e1535;}.cls-2,.cls-3,.cls-4,.cls-6,.cls-7{stroke-miterlimit:10;}.cls-3,.cls-4,.cls-7{fill:#fff;}.cls-3,.cls-4{stroke:#2b426e;}.cls-3,.cls-6{stroke-width:3.56px;}.cls-4{stroke-width:0.11px;}.cls-5{clip-path:url(#clip-path);}.cls-6,.cls-7{stroke:#fff;}.cls-7{font-size:99.25px;stroke-width:0.41px;font-family:BritannicBold, Britannic Bold;letter-spacing:0.06em;}</style><clipPath id="clip-path" transform="translate(0.5 0.5)"><path id="SVGID" class="cls-1" d="M148.13,40.46a59.22,59.22,0,0,0-19.44,19.16c1.22-1.4,20.31-22.5,46-17.26C191,45.7,200.52,57.79,202,59.73a51.14,51.14,0,0,1,9.94,26c.64,6.28-.58,12.7-2.94,25.28-1.72,9.13-3.51,16.62-4.84,21.8l15.43.13c1.95-7.13,3.29-13.33,4.24-18.25A163.38,163.38,0,0,0,227,88.78c0-.29,0-.52,0-.73a117.69,117.69,0,0,0-1.68-22.75c-2-12-4-21.36-11.35-27.58-5.12-4.31-10.54-5.09-18.95-6.29-11.81-1.68-21.12.39-27.17,1.8S155.41,36.12,148.13,40.46Z"/></clipPath></defs><rect class="cls-2" x="0.5" y="0.5" width="810" height="240" rx="22.15"/><path class="cls-2" d="M70.5,314.5" transform="translate(0.5 0.5)"/><path class="cls-3" d="M31.24,181.74q1.57-15.92,2.48-28.67t1.53-29.58q.61-16.81.89-35.49t.23-29.71c7.18.16,13,.22,17.41.21,4.59,0,10.2-.18,16.8-.48s13-.46,19.31-.48a193,193,0,0,1,19.65.82,46.58,46.58,0,0,1,11.78,2.58,33.08,33.08,0,0,1,8.94,4.8,28.75,28.75,0,0,1,6.05,6.35,28.15,28.15,0,0,1,3.79,8.26,37.36,37.36,0,0,1,1.37,10.17,41.88,41.88,0,0,1-1.42,11.35,33.57,33.57,0,0,1-4.57,10,31.39,31.39,0,0,1-7.9,8.08,69.37,69.37,0,0,1-13.37,7l4.53,11.46q1.91,4.78,4.09,9.75l11.65,26.45q.78,1.71,2.79,6.77-14.22-.12-19.13-.1-6.19,0-20.33.26-1.4-4.69-5.07-17.43c-1-3.56-1.84-6.29-2.54-8.22q-2.08-6.42-6.2-18L75,112.3a47.36,47.36,0,0,0,9.15.87,31.19,31.19,0,0,0,11.41-2A15.46,15.46,0,0,0,103.3,105a16.2,16.2,0,0,0,2.6-8.78,12,12,0,0,0-2-6.82A11.73,11.73,0,0,0,97.62,85q-4.28-1.44-13.15-1.4c-2,0-4.1.06-6.25.16s-4.67.19-7.54.26q-1,18.54-1.78,45.22T68,181.6q-14.42-.12-18.73-.11Q44.27,181.51,31.24,181.74Z" transform="translate(0.5 0.5)"/><path class="cls-3" d="M200.73,108.46q22.41.65,45.81.63,14.5,0,28.62-.3-1.07,12.4-2.14,35.1t-1.28,34.27q-9.92,2-16.41,2.83t-15.64,1.6c-6.09.47-11.53.72-16.29.74a132.16,132.16,0,0,1-23-1.9,74,74,0,0,1-20.24-6.34,42.88,42.88,0,0,1-14.92-12,55.79,55.79,0,0,1-9.25-18,72.25,72.25,0,0,1-3.32-21.51,69.25,69.25,0,0,1,8.57-34.12,63.49,63.49,0,0,1,24.94-25q16.31-9.24,42.16-9.34a206.12,206.12,0,0,1,41.83,4.62q0,13.22,1.23,29.39-6.21-2.14-10.05-3.26a88.33,88.33,0,0,0-9-2.05q-5.15-.93-9.75-1.36t-8.23-.42A55.87,55.87,0,0,0,216.45,85a37.36,37.36,0,0,0-23.53,23A50.08,50.08,0,0,0,190,125.41,38.35,38.35,0,0,0,193.49,142a23.38,23.38,0,0,0,11,11,36.44,36.44,0,0,0,16.74,3.73,67.94,67.94,0,0,0,16.8-2.41l.9-19.63q-5.61-.26-6.65-.25H203.61Z" transform="translate(0.5 0.5)"/><path id="SVGID-2" data-name="SVGID" class="cls-1" d="M98.68,200a60.4,60.4,0,0,0,26.08,6.61c3,.07,19.25,1.56,33.67-9.49,4.37-3.36,8.89-7.14,13.45-11.4a182.74,182.74,0,0,0,28.72-34.59l13.36,4.6c-5.1,7-9.77,12.67-13.48,17a213,213,0,0,1-22.29,23c-4.36,3.83-8.59,7.2-12.58,10.15-4.62,3.43-24,15.19-45.19,8.71A46.86,46.86,0,0,1,98.68,200Z" transform="translate(0.5 0.5)"/><path class="cls-4" d="M95.32,199a52.78,52.78,0,0,0,16.52,9.2c25.89,8.73,49.92-6.43,54.14-9.19a172.93,172.93,0,0,0,13.45-11.4,175,175,0,0,0,26.27-31.39l14.13.72A159.94,159.94,0,0,1,208,174.6a155.66,155.66,0,0,1-34.88,33.11c-1.55,1.23-27.16,20.79-54.56,10.11A51.27,51.27,0,0,1,95.32,199Z" transform="translate(0.5 0.5)"/><path id="SVGID-3" data-name="SVGID" class="cls-1" d="M148.13,40.46a59.22,59.22,0,0,0-19.44,19.16c1.22-1.4,20.31-22.5,46-17.26C191,45.7,200.52,57.79,202,59.73a51.14,51.14,0,0,1,9.94,26c.64,6.28-.58,12.7-2.94,25.28-1.72,9.13-3.51,16.62-4.84,21.8l15.43.13c1.95-7.13,3.29-13.33,4.24-18.25A163.38,163.38,0,0,0,227,88.78c0-.29,0-.52,0-.73a117.69,117.69,0,0,0-1.68-22.75c-2-12-4-21.36-11.35-27.58-5.12-4.31-10.54-5.09-18.95-6.29-11.81-1.68-21.12.39-27.17,1.8S155.41,36.12,148.13,40.46Z" transform="translate(0.5 0.5)"/><g class="cls-5"><path class="cls-6" d="M84.63,182.81s19.62,42.39,74.46,9.69a152.74,152.74,0,0,0,13.45-11.4,162.14,162.14,0,0,0,29.9-38.78l13.89,0a143.18,143.18,0,0,1-15.18,25.84,138.46,138.46,0,0,1-34.88,33.11S111.85,240.58,84.63,182.81Z" transform="translate(0.5 0.5)"/></g><path class="cls-4" d="M131.12,54.92c.24.23,2.69-2,4.51-3.56a64.61,64.61,0,0,1,15-9.23c4.76-2.13,19.25-8.66,35.71-3.05,15.5,5.28,23.49,18.14,25.89,22.38a83.85,83.85,0,0,1,6.87,30.78c.24,8.83-1.37,16.83-2.94,25.28-1.3,7-2.74,12.69-3.87,16.78l16.34.17c.94-5.12,1.73-9.6,2.36-13.26,2.14-12.47,2.91-18.39,3.18-25.94,0-.28,0-.52,0-.73a117.75,117.75,0,0,0-1.68-22.75,53.46,53.46,0,0,0-11.35-27.58,47.89,47.89,0,0,0-17.26-13.46c-23.28-10.37-47.62,4-52.56,6.87-3.19,1.88-10.6,5.62-16.63,12.49C133.54,51.44,130.85,54.66,131.12,54.92Z" transform="translate(0.5 0.5)"/><text class="cls-7" transform="translate(357.23 90.75) rotate(-0.23)">Riveras <tspan x="51.86" y="119.1">Group</tspan></text></svg>